{
	"asset":{
		"generator":"Khronos glTF Blender I/O v4.4.56",
		"version":"2.0"
	},
	"scene":0,
	"scenes":[
		{
			"name":"Scene",
			"nodes":[
				4
			]
		}
	],
	"nodes":[
		{
			"mesh":0,
			"name":"Mateo_Mateo_0"
		},
		{
			"children":[
				0
			],
			"name":"Mateo",
			"rotation":[
				-0.70710688829422,
				0,
				0,
				0.7071066498756409
			],
			"scale":[
				100,
				99.99999237060547,
				99.99999237060547
			]
		},
		{
			"children":[
				1
			],
			"name":"RootNode"
		},
		{
			"children":[
				2
			],
			"name":"82e2b42809fb4313b017ac36ebb12f4f.fbx",
			"rotation":[
				0.70710688829422,
				0,
				0,
				0.7071066498756409
			],
			"scale":[
				0.009999999776482582,
				0.010000000707805157,
				0.010000000707805157
			]
		},
		{
			"children":[
				3
			],
			"name":"Sketchfab_model",
			"rotation":[
				-0.70710688829422,
				0,
				0,
				0.7071066498756409
			]
		}
	],
	"materials":[
		{
			"doubleSided":true,
			"name":"Mateo",
			"normalTexture":{
				"index":0
			},
			"occlusionTexture":{
				"index":1
			},
			"pbrMetallicRoughness":{
				"baseColorTexture":{
					"index":2
				},
				"metallicFactor":0,
				"metallicRoughnessTexture":{
					"index":1
				}
			}
		}
	],
	"meshes":[
		{
			"name":"Mateo_Mateo_0",
			"primitives":[
				{
					"attributes":{
						"POSITION":0,
						"NORMAL":1,
						"TEXCOORD_0":2
					},
					"indices":3,
					"material":0
				}
			]
		}
	],
	"textures":[
		{
			"sampler":0,
			"source":0
		},
		{
			"sampler":0,
			"source":1
		},
		{
			"sampler":0,
			"source":2
		}
	],
	"images":[
		{
			"mimeType":"image/png",
			"name":"Mateo_normal",
			"uri":"textures/Mateo_normal.png"
		},
		{
			"mimeType":"image/png",
			"name":"Mateo_metallicRoughness",
			"uri":"textures/Mateo_metallicRoughness.png"
		},
		{
			"mimeType":"image/png",
			"name":"Mateo_baseColor",
			"uri":"textures/Mateo_baseColor.png"
		}
	],
	"accessors":[
		{
			"bufferView":0,
			"componentType":5126,
			"count":5341,
			"max":[
				0.9801294803619385,
				0.48685455322265625,
				1.8976078033447266
			],
			"min":[
				-0.9801294803619385,
				-0.7573333978652954,
				-0.0017045792192220688
			],
			"type":"VEC3"
		},
		{
			"bufferView":1,
			"componentType":5126,
			"count":5341,
			"type":"VEC3"
		},
		{
			"bufferView":2,
			"componentType":5126,
			"count":5341,
			"type":"VEC2"
		},
		{
			"bufferView":3,
			"componentType":5123,
			"count":26166,
			"type":"SCALAR"
		}
	],
	"bufferViews":[
		{
			"buffer":0,
			"byteLength":64092,
			"byteOffset":0,
			"target":34962
		},
		{
			"buffer":0,
			"byteLength":64092,
			"byteOffset":64092,
			"target":34962
		},
		{
			"buffer":0,
			"byteLength":42728,
			"byteOffset":128184,
			"target":34962
		},
		{
			"buffer":0,
			"byteLength":52332,
			"byteOffset":170912,
			"target":34963
		}
	],
	"samplers":[
		{
			"magFilter":9729,
			"minFilter":9987
		}
	],
	"buffers":[
		{
			"byteLength":223244,
			"uri":"scene.bin"
		}
	]
}
